# xmcd
#
# Track frame offsets: 
#        150
#        13393
#        33831
#        54503
#        74813
#        97463
#        117749
#        136789
#        156856
#        175407
#        197290
#        217730
#        239062
#        266590
#        286888
#        308793
#        333732
#
# Disc length: 4777 seconds
#
# Revision: 1
# Processed by: cddbd v1.5.2PL0 Copyright (c) Steve Scherf et al.
# Submitted via: ExactAudioCopy v1.3
#
DISCID=0a12a711
DTITLE=Various Artist - Akella Presents - vol.34 - Electric Blues  CD
DTITLE=1 
DYEAR=2013
DGENRE=Blues
TTITLE0=Mighty Mo Rodgers - Blues For A Blue Planet (The Last Tango)
TTITLE1=Eric Street Band - Cardboard City
TTITLE2=Paul Thorn - Everybody Looks Good at the Starting Line
TTITLE3=Midnight Creepers - Another You
TTITLE4=Paul Wood - What Have I Done
TTITLE5=Hans Bollandsas - Great Divide
TTITLE6=Bill Deraime - Tout l'monde a gagne
TTITLE7=Shane Dwight - Don't Forget My Name When You Pray
TTITLE8=Trampled Under Foot - Desperate Heart
TTITLE9=Kevin Selfe - Too Much Voodoo
TTITLE10=Tomcat Blake - If You Know
TTITLE11=Homemade Jamz Blues Band - Hobo Man
TTITLE12=Roy Roberts - I'll Chace Your Blues Away
TTITLE13=A.L. James and Spare Change - Satisfaction Guaranteed
TTITLE14=Too Slim and the Taildraggers - Killin' Me
TTITLE15=Gene Deer - Living With The Blues
TTITLE16=Calvin Russell - Trouble
EXTD=
EXTT0=
EXTT1=
EXTT2=
EXTT3=
EXTT4=
EXTT5=
EXTT6=
EXTT7=
EXTT8=
EXTT9=
EXTT10=
EXTT11=
EXTT12=
EXTT13=
EXTT14=
EXTT15=
EXTT16=
PLAYORDER=
